<svg width="26" height="26" viewBox="0 0 26 26" fill="none" xmlns="http://www.w3.org/2000/svg">
<path d="M19.7001 13.6913C19.718 16.5177 20.8518 19.2235 22.8584 21.2183C23.0327 21.3912 23.0856 21.6531 22.9916 21.8803L22.9912 21.8814C22.8964 22.107 22.676 22.256 22.4284 22.2548M19.7001 13.6913L22.429 22.0548M19.7001 13.6913V13.5967V11.6641C19.7176 10.1275 19.2154 8.63066 18.275 7.41518C17.3984 6.28212 16.1892 5.45619 14.821 5.0509C15.2642 4.4235 15.3572 3.60319 15.0487 2.88433L15.0486 2.88421C14.6962 2.06439 13.8907 1.53328 12.9982 1.53328C12.1057 1.53328 11.3002 2.06439 10.9477 2.88421L10.9477 2.88433C10.6397 3.60194 10.7318 4.4206 11.173 5.04756C9.82501 5.4298 8.62769 6.22579 7.75338 7.32781C6.81219 8.5119 6.30025 9.97966 6.30025 11.4924L6.30025 13.5968L6.30025 13.5973C6.30723 16.4577 5.17063 19.2015 3.14175 21.2183C2.96749 21.3912 2.91459 21.6531 3.00854 21.8804L3.00898 21.8814C3.10373 22.107 3.32419 22.2561 3.57172 22.2548M19.7001 13.6913L10.0221 22.2548M22.4284 22.2548C22.4282 22.2548 22.428 22.2548 22.4278 22.2548L22.429 22.0548M22.4284 22.2548H22.429V22.0548M22.4284 22.2548H15.9781M22.429 22.0548H15.8112M15.9781 22.2548C15.9899 22.1988 16.0002 22.1422 16.0089 22.085L15.8112 22.0548M15.9781 22.2548C15.6832 23.6549 14.4456 24.67 13.0001 24.67C11.5546 24.67 10.3171 23.6548 10.0221 22.2548M15.9781 22.2548H15.8112V22.0548M15.8112 22.0548L10.0221 22.2548M10.0221 22.2548H10.189V22.0548L9.99125 22.085C9.99999 22.1422 10.0103 22.1988 10.0221 22.2548ZM10.0221 22.2548H3.57172M3.57172 22.2548C3.57195 22.2548 3.57218 22.2548 3.57241 22.2548L3.57118 22.0548V22.2548H3.57172ZM14.7285 22.2548C14.4747 22.9798 13.7867 23.4798 13.0001 23.4798H13C12.2133 23.4798 11.5254 22.9798 11.2716 22.2548H14.7285ZM7.51233 11.4923L7.51233 11.4921C7.51037 9.98888 8.12478 8.55132 9.21241 7.51484L9.21249 7.51476C10.2998 6.4774 11.7643 5.93254 13.2651 6.00468C14.6959 6.09323 16.0376 6.73138 17.0099 7.78403L17.0099 7.78404C17.9834 8.83797 18.5119 10.2252 18.4874 11.6596L18.4873 11.6596V11.663L18.4873 13.5961C18.4873 13.5962 18.4873 13.5963 18.4873 13.5964C18.4786 16.3044 19.3944 18.9296 21.0743 21.0423H4.92542C6.60545 18.9295 7.52131 16.3044 7.51233 13.5964L7.51233 11.4923ZM13.0001 2.7548C13.4119 2.7548 13.7837 3.00272 13.9416 3.38391C14.0986 3.76426 14.012 4.20229 13.7209 4.49442C13.4287 4.78555 12.9906 4.87209 12.6103 4.71501C12.2292 4.55705 11.9813 4.18525 11.9813 3.77355C11.9813 3.21066 12.4372 2.7548 13.0001 2.7548Z" fill="#213F7D" stroke="#213F7D" stroke-width="0.4"/>
</svg>
